<svg width="25" height="25" viewBox="0 0 25 25" fill="none" xmlns="http://www.w3.org/2000/svg">
<path d="M12.5 2.34375C6.9 2.34375 2.34375 6.9 2.34375 12.5C2.34375 18.1 6.9 22.6562 12.5 22.6562C18.1 22.6562 22.6562 18.1 22.6562 12.5C22.6562 6.9 18.1 2.34375 12.5 2.34375ZM12.5 3.90625C17.2555 3.90625 21.0938 7.74453 21.0938 12.5C21.0938 17.2555 17.2555 21.0938 12.5 21.0938C7.74453 21.0938 3.90625 17.2555 3.90625 12.5C3.90625 7.74453 7.74453 3.90625 12.5 3.90625ZM11.7188 7.8125V11.7188H7.8125V13.2812H11.7188V17.1875H13.2812V13.2812H17.1875V11.7188H13.2812V7.8125H11.7188Z" fill="white"/>
</svg>
