<svg width="25" height="25" viewBox="0 0 25 25" fill="none" xmlns="http://www.w3.org/2000/svg">
<path fill-rule="evenodd" clip-rule="evenodd" d="M0 12.5C0 5.59625 5.59625 0 12.5 0C19.4037 0 25 5.59625 25 12.5C25 19.4037 19.4037 25 12.5 25C5.59625 25 0 19.4037 0 12.5ZM14.375 6.25C14.3749 6.00281 14.3016 5.76119 14.1643 5.55568C14.0269 5.35016 13.8317 5.18999 13.6033 5.0954C13.3749 5.00081 13.1237 4.97606 12.8812 5.02427C12.6388 5.07248 12.4161 5.19149 12.2413 5.36625L9.74125 7.86625C9.51355 8.102 9.38756 8.41776 9.39041 8.7455C9.39326 9.07325 9.52472 9.38676 9.75648 9.61852C9.98824 9.85028 10.3018 9.98174 10.6295 9.98459C10.9572 9.98744 11.273 9.86145 11.5087 9.63375L11.875 9.2675V18.75C11.875 19.0815 12.0067 19.3995 12.2411 19.6339C12.4755 19.8683 12.7935 20 13.125 20C13.4565 20 13.7745 19.8683 14.0089 19.6339C14.2433 19.3995 14.375 19.0815 14.375 18.75V6.25Z" fill="#471AA0"/>
</svg>
