<svg width="26" height="24" viewBox="0 0 26 24" fill="none" xmlns="http://www.w3.org/2000/svg">
<g id="teenyicons:id-outline" clip-path="url(#clip0_104_1389)">
<path id="Vector" d="M3.46667 19.9992V20.7992H5.2V19.9992H3.46667ZM12.1333 19.9992V20.7992H13.8667V19.9992H12.1333ZM5.2 19.9992V19.1992H3.46667V19.9992H5.2ZM12.1333 19.1992V19.9992H13.8667V19.1992H12.1333ZM8.66667 15.9992C9.58608 15.9992 10.4678 16.3364 11.118 16.9365C11.7681 17.5366 12.1333 18.3505 12.1333 19.1992H13.8667C13.8667 17.9262 13.3188 16.7053 12.3436 15.8051C11.3684 14.9049 10.0458 14.3992 8.66667 14.3992V15.9992ZM5.2 19.1992C5.2 18.3505 5.56524 17.5366 6.21536 16.9365C6.86549 16.3364 7.74725 15.9992 8.66667 15.9992V14.3992C7.28754 14.3992 5.9649 14.9049 4.98971 15.8051C4.01452 16.7053 3.46667 17.9262 3.46667 19.1992H5.2ZM8.66667 6.39922C7.74725 6.39922 6.86549 6.73636 6.21536 7.33648C5.56524 7.93659 5.2 8.75053 5.2 9.59922H6.93333C6.93333 9.17487 7.11595 8.76791 7.44102 8.46785C7.76608 8.16779 8.20696 7.99922 8.66667 7.99922V6.39922ZM12.1333 9.59922C12.1333 8.75053 11.7681 7.93659 11.118 7.33648C10.4678 6.73636 9.58608 6.39922 8.66667 6.39922V7.99922C9.12638 7.99922 9.56726 8.16779 9.89232 8.46785C10.2174 8.76791 10.4 9.17487 10.4 9.59922H12.1333ZM8.66667 12.7992C9.58608 12.7992 10.4678 12.4621 11.118 11.862C11.7681 11.2618 12.1333 10.4479 12.1333 9.59922H10.4C10.4 10.0236 10.2174 10.4305 9.89232 10.7306C9.56726 11.0306 9.12638 11.1992 8.66667 11.1992V12.7992ZM8.66667 11.1992C8.20696 11.1992 7.76608 11.0306 7.44102 10.7306C7.11595 10.4305 6.93333 10.0236 6.93333 9.59922H5.2C5.2 10.4479 5.56524 11.2618 6.21536 11.862C6.86549 12.4621 7.74725 12.7992 8.66667 12.7992V11.1992ZM2.6 4.79922H23.4V3.19922H2.6V4.79922ZM24.2667 5.59922V18.3992H26V5.59922H24.2667ZM23.4 19.1992H2.6V20.7992H23.4V19.1992ZM1.73333 18.3992V5.59922H0V18.3992H1.73333ZM2.6 19.1992C2.37015 19.1992 2.14971 19.1149 1.98717 18.9649C1.82464 18.8149 1.73333 18.6114 1.73333 18.3992H0C0 19.0357 0.273928 19.6462 0.761522 20.0963C1.24912 20.5464 1.91044 20.7992 2.6 20.7992V19.1992ZM24.2667 18.3992C24.2667 18.6114 24.1754 18.8149 24.0128 18.9649C23.8503 19.1149 23.6299 19.1992 23.4 19.1992V20.7992C24.0896 20.7992 24.7509 20.5464 25.2385 20.0963C25.7261 19.6462 26 19.0357 26 18.3992H24.2667ZM23.4 4.79922C23.6299 4.79922 23.8503 4.8835 24.0128 5.03353C24.1754 5.18356 24.2667 5.38705 24.2667 5.59922H26C26 4.9627 25.7261 4.35225 25.2385 3.90216C24.7509 3.45208 24.0896 3.19922 23.4 3.19922V4.79922ZM2.6 3.19922C1.91044 3.19922 1.24912 3.45208 0.761522 3.90216C0.273928 4.35225 0 4.9627 0 5.59922H1.73333C1.73333 5.38705 1.82464 5.18356 1.98717 5.03353C2.14971 4.8835 2.37015 4.79922 2.6 4.79922V3.19922ZM15.6 9.59922H20.8V7.99922H15.6V9.59922ZM15.6 14.3992H20.8V12.7992H15.6V14.3992Z" fill="#471AA0"/>
</g>
<defs>
<clipPath id="clip0_104_1389">
<rect width="26" height="24" fill="white"/>
</clipPath>
</defs>
</svg>
