<svg width="25" height="25" viewBox="0 0 25 25" fill="none" xmlns="http://www.w3.org/2000/svg">
<path fill-rule="evenodd" clip-rule="evenodd" d="M0 12.5C0 5.59625 5.59625 0 12.5 0C19.4037 0 25 5.59625 25 12.5C25 19.4037 19.4037 25 12.5 25C5.59625 25 0 19.4037 0 12.5ZM10.625 9.375C10.6247 9.06653 10.7006 8.76277 10.8458 8.49063C10.991 8.21848 11.2011 7.98637 11.4575 7.81487C11.7139 7.64337 12.0087 7.53777 12.3156 7.50744C12.6226 7.47711 12.9323 7.52298 13.2173 7.64098C13.5023 7.75899 13.7538 7.94549 13.9495 8.18395C14.1451 8.42241 14.279 8.70546 14.3391 9.00801C14.3992 9.31056 14.3837 9.62327 14.294 9.91841C14.2044 10.2136 14.0433 10.482 13.825 10.7L9.04 15.4875C8.45429 16.0734 8.12518 16.8678 8.125 17.6962V18.75C8.125 19.0815 8.2567 19.3995 8.49112 19.6339C8.72554 19.8683 9.04348 20 9.375 20H15.625C15.9565 20 16.2745 19.8683 16.5089 19.6339C16.7433 19.3995 16.875 19.0815 16.875 18.75C16.875 18.4185 16.7433 18.1005 16.5089 17.8661C16.2745 17.6317 15.9565 17.5 15.625 17.5H10.6562C10.6867 17.4072 10.7385 17.3229 10.8075 17.2537L15.5938 12.4688C16.1025 11.96 16.4778 11.3336 16.6867 10.6452C16.8955 9.95668 16.9313 9.22733 16.7909 8.52171C16.6505 7.81608 16.3383 7.15597 15.8819 6.59983C15.4255 6.04369 14.839 5.60869 14.1743 5.33336C13.5096 5.05803 12.7873 4.95087 12.0713 5.02137C11.3553 5.09187 10.6677 5.33785 10.0695 5.73754C9.47131 6.13722 8.98089 6.67826 8.64171 7.31274C8.30253 7.94722 8.12505 8.65555 8.125 9.375C8.125 9.70652 8.2567 10.0245 8.49112 10.2589C8.72554 10.4933 9.04348 10.625 9.375 10.625C9.70652 10.625 10.0245 10.4933 10.2589 10.2589C10.4933 10.0245 10.625 9.70652 10.625 9.375Z" fill="#471AA0"/>
</svg>
