<svg width="25" height="25" viewBox="0 0 25 25" fill="none" xmlns="http://www.w3.org/2000/svg">
<path d="M12.25 23.5C18.4632 23.5 23.5 18.4632 23.5 12.25C23.5 6.0368 18.4632 1 12.25 1C6.0368 1 1 6.0368 1 12.25C1 18.4632 6.0368 23.5 12.25 23.5Z" stroke="#471AA0" stroke-width="2" stroke-linecap="round" stroke-linejoin="round"/>
<path d="M9.125 9.12442C9.1251 8.61055 9.25191 8.10464 9.49421 7.65148C9.73651 7.19833 10.0868 6.81192 10.5141 6.52647C10.9414 6.24103 11.4325 6.06536 11.9439 6.01503C12.4553 5.96469 12.9712 6.04125 13.446 6.23791C13.9207 6.43457 14.3396 6.74527 14.6656 7.14249C14.9916 7.53971 15.2146 8.0112 15.3149 8.51518C15.4152 9.01917 15.3896 9.54011 15.2405 10.0319C15.0914 10.5236 14.8233 10.971 14.46 11.3344L9.67375 16.1194C9.32248 16.4709 9.12511 16.9475 9.125 17.4444V18.4994H15.375" stroke="#471AA0" stroke-width="2" stroke-linecap="round" stroke-linejoin="round"/>
</svg>
