<svg width="24" height="24" viewBox="0 0 24 24" fill="none" xmlns="http://www.w3.org/2000/svg">
<g clip-path="url(#clip0_68_1335)">
<path fill-rule="evenodd" clip-rule="evenodd" d="M8.17298 15.8295C12.018 19.6745 15.581 20.0955 16.627 20.1345C17.891 20.1805 19.181 19.1485 19.739 18.0915C18.849 17.0475 17.69 16.2375 16.42 15.3595C15.672 16.1075 14.75 17.4975 13.52 16.9995C12.821 16.7185 11.095 15.9235 9.58698 14.4145C8.07798 12.9065 7.28398 11.1805 7.00098 10.4825C6.50298 9.25146 7.89698 8.32646 8.64598 7.57746C7.76798 6.28746 6.97198 5.09846 5.92998 4.25346C4.85798 4.81346 3.81998 6.09346 3.86698 7.37446C3.90598 8.42046 4.32698 11.9835 8.17298 15.8295ZM16.553 22.1325C15.113 22.0795 11.032 21.5165 6.75798 17.2425C2.48498 12.9695 1.92198 8.88946 1.86798 7.44846C1.78798 5.25246 3.46998 3.11946 5.41298 2.28646C5.64695 2.18543 5.90318 2.14696 6.15651 2.17484C6.40984 2.20271 6.65157 2.29597 6.85798 2.44546C8.46598 3.61846 9.57498 5.39546 10.528 6.78746C10.7262 7.07691 10.817 7.42656 10.7847 7.7759C10.7524 8.12525 10.599 8.4523 10.351 8.70046L8.99498 10.0575C9.30998 10.7525 9.95098 11.9505 11.001 13.0005C12.051 14.0505 13.249 14.6915 13.945 15.0065L15.3 13.6505C15.5491 13.4019 15.8775 13.2487 16.228 13.2175C16.5785 13.1862 16.9288 13.2789 17.218 13.4795C18.638 14.4635 20.306 15.5565 21.522 17.1135C21.6836 17.3214 21.7864 17.5689 21.8197 17.8301C21.8529 18.0913 21.8154 18.3567 21.711 18.5985C20.874 20.5515 18.756 22.2135 16.553 22.1325Z" fill="#471AA0"/>
</g>
<defs>
<clipPath id="clip0_68_1335">
<rect width="24" height="24" fill="white"/>
</clipPath>
</defs>
</svg>
