<svg width="30" height="30" viewBox="0 0 30 30" fill="none" xmlns="http://www.w3.org/2000/svg">
<path d="M26.8574 24.9614C25.0047 21.7598 22.0961 19.5134 18.7164 18.5606C20.3595 17.7254 21.6735 16.3611 22.4464 14.6877C23.2192 13.0143 23.406 11.1294 22.9766 9.33686C22.5471 7.54434 21.5265 5.94869 20.0792 4.8072C18.632 3.66572 16.8424 3.04492 14.9992 3.04492C13.156 3.04492 11.3664 3.66572 9.91916 4.8072C8.4719 5.94869 7.45126 7.54434 7.02182 9.33686C6.59237 11.1294 6.77915 13.0143 7.55204 14.6877C8.32493 16.3611 9.63887 17.7254 11.282 18.5606C7.90232 19.5122 4.99373 21.7587 3.141 24.9614C3.09012 25.0414 3.05596 25.1309 3.04057 25.2245C3.02518 25.3181 3.02888 25.4138 3.05144 25.5059C3.074 25.598 3.11496 25.6846 3.17185 25.7605C3.22875 25.8363 3.3004 25.8999 3.3825 25.9474C3.4646 25.9948 3.55545 26.0252 3.64959 26.0366C3.74373 26.048 3.83921 26.0403 3.93028 26.0139C4.02135 25.9875 4.10614 25.9429 4.17955 25.8829C4.25295 25.8228 4.31345 25.7486 4.3574 25.6645C6.60857 21.7751 10.5859 19.4536 14.9992 19.4536C19.4125 19.4536 23.3898 21.7751 25.641 25.6645C25.685 25.7486 25.7455 25.8228 25.8189 25.8829C25.8923 25.9429 25.977 25.9875 26.0681 26.0139C26.1592 26.0403 26.2547 26.048 26.3488 26.0366C26.4429 26.0252 26.5338 25.9948 26.6159 25.9474C26.698 25.8999 26.7697 25.8363 26.8265 25.7605C26.8834 25.6846 26.9244 25.598 26.947 25.5059C26.9695 25.4138 26.9732 25.3181 26.9578 25.2245C26.9424 25.1309 26.9083 25.0414 26.8574 24.9614ZM8.20232 11.2505C8.20232 9.90617 8.60096 8.59207 9.34781 7.47433C10.0947 6.35659 11.1562 5.48541 12.3981 4.97097C13.6401 4.45653 15.0067 4.32193 16.3252 4.58419C17.6437 4.84645 18.8548 5.49379 19.8053 6.44435C20.7559 7.39491 21.4032 8.606 21.6655 9.92446C21.9277 11.2429 21.7931 12.6096 21.2787 13.8515C20.7643 15.0935 19.8931 16.155 18.7753 16.9019C17.6576 17.6487 16.3435 18.0473 14.9992 18.0473C13.1972 18.0452 11.4697 17.3284 10.1955 16.0542C8.92129 14.78 8.2045 13.0524 8.20232 11.2505Z" fill="#471AA0"/>
</svg>
