<svg width="25" height="25" viewBox="0 0 25 25" fill="none" xmlns="http://www.w3.org/2000/svg">
<path fill-rule="evenodd" clip-rule="evenodd" d="M0 12.5C0 5.59625 5.59625 0 12.5 0C19.4037 0 25 5.59625 25 12.5C25 19.4037 19.4037 25 12.5 25C5.59625 25 0 19.4037 0 12.5ZM10 5C9.66848 5 9.35054 5.1317 9.11612 5.36612C8.8817 5.60054 8.75 5.91848 8.75 6.25C8.75 6.58152 8.8817 6.89946 9.11612 7.13388C9.35054 7.3683 9.66848 7.5 10 7.5H13.75L11.5 10.5C11.3607 10.6857 11.2759 10.9065 11.2551 11.1377C11.2342 11.3689 11.2781 11.6014 11.382 11.809C11.4858 12.0166 11.6454 12.1913 11.8428 12.3133C12.0403 12.4354 12.2679 12.5 12.5 12.5C12.9052 12.5 13.3044 12.5985 13.6631 12.787C14.0218 12.9755 14.3293 13.2484 14.5591 13.5822C14.7889 13.9159 14.9341 14.3005 14.9823 14.7029C15.0305 15.1052 14.9801 15.5132 14.8355 15.8918C14.691 16.2704 14.4566 16.6081 14.1525 16.876C13.8485 17.1438 13.4838 17.3337 13.0901 17.4294C12.6963 17.525 12.2852 17.5235 11.8921 17.425C11.4991 17.3264 11.1358 17.1338 10.8337 16.8638C10.7118 16.7525 10.5689 16.6665 10.4135 16.6107C10.2581 16.5549 10.0931 16.5305 9.92821 16.5389C9.76329 16.5472 9.60166 16.5881 9.45265 16.6593C9.30365 16.7305 9.17022 16.8305 9.06007 16.9535C8.94993 17.0765 8.86525 17.2201 8.81093 17.3761C8.75661 17.532 8.73373 17.6972 8.7436 17.862C8.75347 18.0268 8.79591 18.1881 8.86845 18.3364C8.94099 18.4848 9.04221 18.6173 9.16625 18.7263C9.70085 19.2039 10.3319 19.5611 11.0167 19.7734C11.7014 19.9858 12.4238 20.0484 13.1349 19.9571C13.846 19.8657 14.5291 19.6225 15.1379 19.2439C15.7467 18.8654 16.267 18.3603 16.6635 17.763C17.06 17.1657 17.3234 16.4901 17.4359 15.7821C17.5483 15.074 17.5072 14.3501 17.3153 13.6593C17.1233 12.9686 16.7851 12.3272 16.3235 11.7786C15.8619 11.23 15.2878 10.7872 14.64 10.48L17.25 7C17.3893 6.81429 17.4741 6.59346 17.4949 6.36226C17.5158 6.13105 17.4718 5.89862 17.368 5.69098C17.2642 5.48335 17.1046 5.30873 16.9072 5.18669C16.7097 5.06464 16.4821 5 16.25 5H10Z" fill="#471AA0"/>
</svg>
