<svg width="25" height="25" viewBox="0 0 25 25" fill="none" xmlns="http://www.w3.org/2000/svg">
<path d="M12.25 23.5C18.4632 23.5 23.5 18.4632 23.5 12.25C23.5 6.0368 18.4632 1 12.25 1C6.0368 1 1 6.0368 1 12.25C1 18.4632 6.0368 23.5 12.25 23.5Z" stroke="#471AA0" stroke-width="1.5" stroke-linecap="round" stroke-linejoin="round"/>
<path d="M9.75 17.545C10.2031 17.9503 10.7479 18.2393 11.3375 18.3872C11.9271 18.5352 12.5438 18.5376 13.1345 18.3942C13.7252 18.2509 14.2722 17.966 14.7284 17.5643C15.1846 17.1626 15.5363 16.656 15.7532 16.0881C15.9701 15.5202 16.0457 14.9082 15.9735 14.3046C15.9014 13.701 15.6835 13.1241 15.3388 12.6234C14.9941 12.1227 14.5328 11.7133 13.9947 11.4305C13.4566 11.1477 12.8579 11 12.25 11L16 6H9.75" stroke="#471AA0" stroke-width="1.5" stroke-linecap="round" stroke-linejoin="round"/>
</svg>
