<svg width="24" height="24" viewBox="0 0 24 24" fill="none" xmlns="http://www.w3.org/2000/svg">
<path d="M7.615 20.0005C7.16833 20.0005 6.78733 19.8431 6.472 19.5285C6.15733 19.2138 6 18.8328 6 18.3855V6.00047H5V5.00047H9V4.23047H15V5.00047H19V6.00047H18V18.3855C18 18.8455 17.846 19.2295 17.538 19.5375C17.2293 19.8461 16.845 20.0005 16.385 20.0005H7.615ZM17 6.00047H7V18.3855C7 18.5648 7.05767 18.7121 7.173 18.8275C7.28833 18.9428 7.43567 19.0005 7.615 19.0005H16.385C16.5383 19.0005 16.6793 18.9365 16.808 18.8085C16.936 18.6798 17 18.5388 17 18.3855V6.00047ZM9.808 17.0005H10.808V8.00047H9.808V17.0005ZM13.192 17.0005H14.192V8.00047H13.192V17.0005Z" fill="black"/>
</svg>
